<svg xmlns="http://www.w3.org/2000/svg" viewBox="0 0 140 200" width="140" height="200">
  <defs>
    <path id="heart" d="M10 6 C10 3 8.5 1 6.5 1 4.5 1 3 2.5 3 4.5 3 6.5 6 9 10 13 14 9 17 6.5 17 4.5 17 2.5 15.5 1 13.5 1 11.5 1 10 3 10 6 Z" fill="#D40000"/>
  </defs>
  <rect x="0.5" y="0.5" width="139" height="199" rx="10" fill="white" stroke="#CCCCCC" stroke-width="1"/>
  <g transform="translate(10, 10)">
    <text x="0" y="12" font-family="Serif" font-size="16" font-weight="bold" fill="#D40000">7</text>
    <use href="#heart" x="-2" y="16" transform="scale(0.8)"/>
  </g>
  <g transform="translate(130, 190) rotate(180)">
    <text x="0" y="12" font-family="Serif" font-size="16" font-weight="bold" fill="#D40000">7</text>
    <use href="#heart" x="-2" y="16" transform="scale(0.8)"/>
  </g>
  <g>
    <use href="#heart" x="30" y="45"/>
    <use href="#heart" x="30" y="93"/>
    <use href="#heart" x="30" y="141"/>
    <use href="#heart" x="90" y="45"/>
    <use href="#heart" x="90" y="93"/>
    <use href="#heart" x="90" y="141"/>
    <use href="#heart" x="60" y="69"/>
  </g>
</svg>